:SAMPLES-PER-SECOND 30
:FULLY-SPECIFIED
:DEGREES
946
root  81.6659 38.3694 -26.6627 175.323 -7.23961 175.429
RightUpLeg  -26.3008 -17.6784 -10.5017
RightLeg  51.513 -2.48504 -3.63719
RightFoot  -0.456875 -1.41504 14.8811
RightToes  -1.16417e-010 0 -3.6325e-017
Spine  27.5433 -1.94529 3.28729
Spine1  7.04093 -0.161774 -4.42111
HEad  -11.2365 40.6124 -23.9221
LeftShoulder1  11.0648 -16.9897 -47.1442
LeftArm  7.70611 -20.2885 -38.3904
LeftForeArm  7.19148 -42.0934 -9.63125
LeftHand  -0.244104 0.0205437 5.32207
RightShoulder  7.79506 15.0607 35.9744
RightArm  9.89535 23.3218 30.4991
RightForeArm  -31.0069 42.9033 12.1156
RightHand  -0.284682 -1.84482 -6.62039
LeftUpLeg  -15.1864 11.182 -6.01445
LeftLeg  26.0644 2.44232 1.64272
LeftFoot  -5.5378 -0.0198945 1.05484
LeftToes  -2.09216e-011 1.96776e-011 -5.83545e-012
947
root  82.0915 38.5607 -25.9556 175.346 -10.9461 175.549
RightUpLeg  -21.8727 -16.0867 -10.8292
RightLeg  56.6163 1.87332 2.62267
RightFoot  -2.45526 -1.46313 18.3419
RightToes  -1.16417e-010 0 -3.6325e-017
Spine  25.3048 -1.00192 3.16558
Spine1  9.59581 0.922509 -4.57107
HEad  -11.3274 42.1535 -26.3283
LeftShoulder1  9.72688 -14.5001 -47.1591
LeftArm  8.48605 -17.3939 -38.4394
LeftForeArm  7.53371 -42.9551 -9.93714
LeftHand  -0.244104 0.0205437 5.32207
RightShoulder  7.47329 14.9554 34.5063
RightArm  13.3718 19.1304 34.9151
RightForeArm  -37.9209 43.7733 12.7343
RightHand  -1.49873 3.90455 -18.7833
LeftUpLeg  -14.7068 10.5011 -5.9465
LeftLeg  22.4988 -0.506406 0.110783
LeftFoot  -2.63469 -0.0366879 0.694327
LeftToes  -2.09216e-011 1.96776e-011 -5.83545e-012
948
root  82.5417 38.6446 -25.2579 175.477 -15.4896 175.601
RightUpLeg  -17.1831 -15.682 -9.87615
RightLeg  59.1706 5.61842 9.55315
RightFoot  -2.27425 -1.20275 14.8046
RightToes  -1.16417e-010 0 -3.6325e-017
Spine  23.672 -0.522901 2.96171
Spine1  11.1339 1.38501 -4.49739
HEad  -9.71953 43.6063 -25.9243
LeftShoulder1  9.62742 -15.4112 -44.3197
LeftArm  2.93094 -9.76249 -39.5164
LeftForeArm  12.0997 -46.7357 -11.0529
LeftHand  -0.244104 0.0205437 5.32207
RightShoulder  7.37179 15.2086 33.4133
RightArm  15.5031 15.1062 38.9227
RightForeArm  -40.3904 44.2353 13.0087
RightHand  -2.53286 6.8447 -24.0495
LeftUpLeg  -14.6163 9.36002 -6.18716
LeftLeg  19.4594 -3.57635 -1.09384
LeftFoot  -0.0391717 0.0326278 -0.316386
LeftToes  -2.09216e-011 1.96776e-011 -5.83545e-012
949
root  83.0379 38.5662 -24.5346 176.002 -21.267 175.548
RightUpLeg  -11.0974 -16.5958 -8.64788
RightLeg  57.7576 9.08412 14.6759
RightFoot  -1.10214 -2.03877 22.4115
RightToes  -1.16417e-010 0 -3.6325e-017
Spine  22.3877 0.0864274 2.66416
Spine1  11.6605 1.90378 -4.48592
HEad  -6.70848 43.6062 -24.3348
LeftShoulder1  9.48493 -16.0395 -42.144
LeftArm  0.848776 -4.18326 -40.2017
LeftForeArm  14.6209 -49.8953 -12.2262
LeftHand  -0.244104 0.0205437 5.32207
RightShoulder  7.32325 14.8211 34.0111
RightArm  15.6194 11.0441 41.0023
RightForeArm  -36.65 44.7965 13.117
RightHand  -1.53627 3.83508 -19.5926
LeftUpLeg  -15.5628 7.4335 -6.70953
LeftLeg  17.5968 -6.46521 -2.30201
LeftFoot  1.8992 0.277904 -2.49346
LeftToes  -2.09216e-011 1.96776e-011 -5.83545e-012
950
root  83.4825 38.4964 -23.8437 176.518 -26.8273 175.634
RightUpLeg  -4.67261 -17.5246 -6.45308
RightLeg  51.9366 12.3552 16.0442
RightFoot  -1.09774 -2.36407 25.8708
RightToes  -1.16417e-010 0 -3.6325e-017
Spine  21.3279 1.00259 3.69763
Spine1  11.5322 3.31169 -5.511
HEad  -3.86927 42.5862 -22.1422
LeftShoulder1  9.48311 -16.6563 -40.7222
LeftArm  1.32729 -0.51935 -39.9186
LeftForeArm  15.8875 -52.4227 -13.3847
LeftHand  -0.244104 0.0205437 5.32207
RightShoulder  7.44807 13.8966 36.7719
RightArm  14.3022 6.93467 40.7201
RightForeArm  -35.6649 46.3574 13.7572
RightHand  -1.80007 4.66785 -20.4274
LeftUpLeg  -16.2108 5.49634 -6.85397
LeftLeg  15.4483 -9.0736 -3.70454
LeftFoot  3.36312 0.717229 -5.69363
LeftToes  -2.09216e-011 1.96776e-011 -5.83545e-012
951
root  83.7626 38.5409 -23.2015 177.47 -32.91 176.04
RightUpLeg  0.520961 -19.8791 -3.22692
RightLeg  43.0504 13.4863 12.9905
RightFoot  -5.40045 -0.833376 13.2985
RightToes  -1.16417e-010 0 -3.6325e-017
Spine  18.8891 0.756851 6.08072
Spine1  12.6981 3.63935 -5.98334
HEad  -4.82692 42.1956 -22.405
LeftShoulder1  9.00823 -15.913 -40.1345
LeftArm  1.24582 1.11489 -39.5906
LeftForeArm  18.7117 -55.5867 -14.9295
LeftHand  -0.244104 0.0205437 5.32207
RightShoulder  7.44134 13.9121 36.7098
RightArm  11.8799 3.89029 42.4255
RightForeArm  -36.5232 48.1828 14.6636
RightHand  -3.0845 8.55537 -25.7455
LeftUpLeg  -16.5014 2.86212 -7.03164
LeftLeg  11.889 -11.3816 -4.40579
LeftFoot  4.58126 1.23009 -9.00124
LeftToes  -2.09216e-011 1.96776e-011 -5.83545e-012
952
root  84.0136 38.4533 -22.4583 178.979 -39.2144 175.521
RightUpLeg  3.92323 -23.1824 -0.754992
RightLeg  33.6459 9.93168 6.83116
RightFoot  -13.4306 -0.0607143 -0.732353
RightToes  -1.16417e-010 0 -3.6325e-017
Spine  17.5353 0.705557 8.24888
Spine1  12.5671 4.0309 -6.68879
HEad  -5.04918 39.5791 -21.8581
LeftShoulder1  9.17464 -15.6579 -41.5302
LeftArm  1.52974 2.00161 -38.2403
LeftForeArm  22.4677 -58.5754 -16.5666
LeftHand  -0.244104 0.0205437 5.32207
RightShoulder  7.4123 13.7626 36.9041
RightArm  8.75227 0.401296 42.4232
RightForeArm  -33.8616 51.3834 16.2371
RightHand  -2.94557 7.92994 -25.4249
LeftUpLeg  -17.3473 0.463378 -8.19316
LeftLeg  9.36119 -10.9292 -4.44625
LeftFoot  3.96851 1.49244 -11.2757
LeftToes  -2.09216e-011 1.96776e-011 -5.83545e-012
953
root  84.2705 38.3322 -21.5522 -179.303 -44.6119 174.053
RightUpLeg  4.96721 -26.039 0.0596994
RightLeg  27.4471 4.82169 2.42299
RightFoot  -19.0879 -0.437816 -4.98191
RightToes  -1.16417e-010 0 -3.6325e-017
Spine  17.1446 0.884916 10.0968
Spine1  13.3767 4.82022 -7.68991
HEad  -5.08102 34.7423 -21.9601
LeftShoulder1  9.43783 -15.4906 -43.2095
LeftArm  2.30891 1.17734 -37.5077
LeftForeArm  25.3683 -60.8987 -18.0779
LeftHand  -0.244104 0.0205437 5.32207
RightShoulder  7.0955 13.4162 35.9402
RightArm  6.12649 -1.57197 42.5898
RightForeArm  -30.1498 54.3886 17.9088
RightHand  -2.01876 5.18443 -22.2881
LeftUpLeg  -17.7709 -0.790223 -9.54688
LeftLeg  7.30533 -4.59779 -4.52482
LeftFoot  1.20564 1.34065 -12.2132
LeftToes  -2.09216e-011 1.96776e-011 -5.83545e-012
954
root  84.4915 38.3272 -20.5715 -177.808 -49.0716 172.533
RightUpLeg  4.03552 -28.2649 -0.315437
RightLeg  25.7053 2.07624 0.839157
RightFoot  -20.8311 -0.464021 -3.89163
RightToes  -1.16417e-010 0 -3.6325e-017
Spine  17.5821 0.95064 12.2689
Spine1  14.0768 5.78791 -9.14068
HEad  -5.60943 30.4818 -22.4491
LeftShoulder1  9.68753 -15.4248 -44.5803
LeftArm  3.72195 -0.263834 -37.3634
LeftForeArm  26.747 -62.1393 -19.0243
LeftHand  -0.244104 0.0205437 5.32207
RightShoulder  6.85929 12.9446 35.7172
RightArm  5.35289 -2.16342 41.3756
RightForeArm  -29.443 56.7462 19.5513
RightHand  -2.43291 6.42478 -23.7724
LeftUpLeg  -17.1207 -1.22004 -10.0455
LeftLeg  4.81941 6.40056 -5.35456
LeftFoot  -2.48024 0.94783 -11.9746
LeftToes  -2.09216e-011 1.96776e-011 -5.83545e-012
955
root  84.6653 38.4203 -19.6394 -176.169 -53.964 171.166
RightUpLeg  2.51318 -31.321 -1.16155
RightLeg  25.5031 1.24517 0.389859
RightFoot  -20.8142 -0.332444 -2.30291
RightToes  -1.16417e-010 0 -3.6325e-017
Spine  17.8741 0.447356 13.7253
Spine1  13.9956 5.694 -9.82184
HEad  -5.57649 27.8825 -21.7822
LeftShoulder1  9.83334 -15.314 -45.5578
LeftArm  5.02829 -0.912819 -37.534
LeftForeArm  27.5223 -62.6234 -19.3939
LeftHand  -0.244104 0.0205437 5.32207
RightShoulder  6.8459 12.7278 36.18
RightArm  5.86179 -2.42869 39.091
RightForeArm  -29.3243 58.3785 20.8604
RightHand  -3.06656 8.26964 -26.0007
LeftUpLeg  -16.4322 -0.776276 -10.2522
LeftLeg  3.21067 15.0235 -6.53683
LeftFoot  -4.83244 0.6624 -11.1366
LeftToes  -2.09216e-011 1.96776e-011 -5.83545e-012
956
root  84.8099 38.645 -18.9224 -174.526 -58.0744 170.176
RightUpLeg  1.61056 -33.5805 -1.34014
RightLeg  23.8024 0.171068 -0.0555531
RightFoot  -19.9334 -0.27543 -1.87867
RightToes  -1.16417e-010 0 -3.6325e-017
Spine  17.4602 0.399996 13.459
Spine1  13.6688 5.16236 -8.69497
HEad  -4.75997 26.5725 -20.1577
LeftShoulder1  9.95621 -15.2853 -46.2193
LeftArm  5.98502 -0.363539 -37.4072
LeftForeArm  27.6934 -62.8708 -19.6142
LeftHand  -0.244104 0.0205437 5.32207
RightShoulder  6.84386 12.7359 36.1472
RightArm  6.36241 -3.04411 37.3988
RightForeArm  -27.3343 59.415 21.6604
RightHand  -2.30985 5.82647 -23.702
LeftUpLeg  -16.4385 2.30577 -9.96361
LeftLeg  3.8686 17.0198 -6.88838
LeftFoot  -5.04754 0.622963 -10.7609
LeftToes  -2.09216e-011 1.96776e-011 -5.83545e-012
957
root  84.871 38.9514 -18.3763 -172.648 -62.1896 168.586
RightUpLeg  2.02154 -33.5546 -1.96206
RightLeg  21.0783 -3.75915 0.0311448
RightFoot  -18.5268 -0.246947 -1.93772
RightToes  -1.16417e-010 0 -3.6325e-017
Spine  17.0339 0.340635 11.9658
Spine1  12.9869 4.07705 -6.54543
HEad  -3.68089 25.2851 -18.3473
LeftShoulder1  10.0734 -15.416 -46.4467
LeftArm  7.07327 0.619822 -36.6764
LeftForeArm  26.7644 -63.0034 -19.8587
LeftHand  -0.244104 0.0205437 5.32207
RightShoulder  6.68606 12.6198 35.487
RightArm  6.5572 -3.85641 37.0529
RightForeArm  -25.5709 60.1893 22.2783
RightHand  -1.25643 1.85962 -20.302
LeftUpLeg  -16.5878 8.07658 -10.3161
LeftLeg  6.49309 12.2751 -5.63073
LeftFoot  -4.00709 0.731451 -11.0083
LeftToes  -2.09216e-011 1.96776e-011 -5.83545e-012
958
root  84.8071 39.2813 -17.8958 -169.963 -65.535 166.053
RightUpLeg  2.58067 -27.1056 -2.82348
RightLeg  18.5242 -13.3775 0.843696
RightFoot  -16.6928 -0.191878 -1.68175
RightToes  -1.16417e-010 0 -3.6325e-017
Spine  16.4082 0.283051 10.577
Spine1  12.3596 3.31368 -5.32911
HEad  -2.7742 24.0397 -16.6685
LeftShoulder1  10.1285 -15.5549 -46.3576
LeftArm  8.33552 1.45325 -35.4672
LeftForeArm  25.3479 -63.0411 -20.0702
LeftHand  -0.244104 0.0205437 5.32207
RightShoulder  6.53422 12.3733 35.1829
RightArm  6.68186 -4.86951 37.2557
RightForeArm  -25.3823 61.1069 23.1798
RightHand  -1.13366 0.985155 -20.5791
LeftUpLeg  -17.237 15.799 -11.163
LeftLeg  9.86584 4.45213 -3.62065
LeftFoot  -3.25567 0.826299 -11.3901
LeftToes  -2.09216e-011 1.96776e-011 -5.83545e-012
